<?xml version="1.0" encoding="utf-8"?>
<!-- Generator: Adobe Illustrator 25.2.1, SVG Export Plug-In . SVG Version: 6.00 Build 0)  -->
<svg version="1.1" id="Layer_1" xmlns="http://www.w3.org/2000/svg" xmlns:xlink="http://www.w3.org/1999/xlink" x="0px" y="0px"
	 viewBox="0 0 600 400" style="enable-background:new 0 0 600 400;" xml:space="preserve">
<path d="M279.8,186.9v26.2c5,2.9,12.9,7.4,17.8,10.3c25.3-14.6,76.7-44.3,76.7-44.3v-20.5l-76.7-44.3l-71.8,41.4v88.5l71.8,41.4
	l76.7-44.3v-15.6l-76.7,44.3l-58.3-33.7v-72.9l58.3-33.7l63.2,36.5v4.9l-63.2,36.5l-4.3-2.5v-10.6l44.8-25.9l-40.5-23.4l-44.8,25.9
	v57.3l44.8,25.9l90.1-52v46.7l-90.1,52L212.3,252V148l85.3-49.2l90.1,52v36.1c0,0-64.8,37.4-90.1,52.1c-10-5.8-21.3-12.3-31.3-18.1
	v-41.7c0,0,21.3-12.3,31.3-18.1c3,1.8,10.6,6.1,13.5,7.8C301,174.6,279.8,186.9,279.8,186.9z"/>
</svg>
